<svg width="74" height="74" viewBox="0 0 74 74" fill="none" xmlns="http://www.w3.org/2000/svg">
<circle cx="37" cy="37" r="36" stroke="#2E1B7F" stroke-width="2"/>
<path d="M32.6978 58.5115V15.4883H42.2174V30.5199C43.4711 29.3867 44.7834 28.5723 46.1546 28.0766C47.5257 27.5454 48.9948 27.2798 50.5618 27.2798C51.933 27.2798 53.0691 27.5985 53.9701 28.2359C54.9103 28.8379 55.6155 29.6877 56.0856 30.7854C56.5557 31.8477 56.7908 33.0694 56.7908 34.4504V58.5115H47.2711V35.672C47.2711 34.9284 47.134 34.3619 46.8598 33.9723C46.5855 33.5828 46.0762 33.3881 45.3319 33.3881C44.9401 33.3881 44.47 33.4943 43.9216 33.7068C43.3731 33.8838 42.8051 34.1494 42.2174 34.5035V58.5115H32.6978Z" fill="#FFBA31"/>
<path d="M18.9302 58.5115V15.4883H29.2558V58.5115H18.9302Z" fill="#FFBA31"/>
</svg>
