<svg width="78" height="78" viewBox="0 0 78 78" fill="none" xmlns="http://www.w3.org/2000/svg">
<circle cx="38.5576" cy="39.1162" r="37.5576" stroke="white" stroke-width="2"/>
<path d="M35.3445 61.6089V16.625H44.2315V32.3416C45.4019 31.1568 46.627 30.3053 47.9071 29.787C49.1871 29.2316 50.5585 28.9539 52.0214 28.9539C53.3015 28.9539 54.3621 29.2871 55.2032 29.9536C56.081 30.583 56.7393 31.4715 57.1781 32.6193C57.617 33.73 57.8364 35.0073 57.8364 36.4512V61.6089H48.9494V37.7286C48.9494 36.9511 48.8214 36.3587 48.5654 35.9514C48.3094 35.5441 47.8339 35.3405 47.139 35.3405C46.7733 35.3405 46.3344 35.4516 45.8224 35.6737C45.3104 35.8589 44.7801 36.1365 44.2315 36.5068V61.6089H35.3445Z" fill="#FFBA31"/>
<path d="M20.8854 61.6089V16.625H30.5248V61.6089H20.8854Z" fill="#FFBA31"/>
</svg>
